<?xml version="1.0" encoding="UTF-8"?>
<svg version="1.1" xmlns="http://www.w3.org/2000/svg" width="677" height="369">
<path d="M0 0 C3.90088558 5.19760854 5.66062489 11.85396833 7.86328125 17.90039062 C9.90010107 23.38870862 12.19047013 28.60097743 14.90478516 33.78979492 C15.93655386 35.87196212 16.75090202 37.92775903 17.5 40.125 C18.79389677 43.78487944 20.64793304 46.83416882 22.81640625 50.04296875 C24 52 24 52 24.87890625 54.2734375 C26.36515905 57.88808717 28.34271487 61.10681048 30.375 64.4375 C30.76171875 65.08009766 31.1484375 65.72269531 31.546875 66.38476562 C33.93233838 70.32718414 36.43857202 74.16880431 39 78 C39.96391381 79.7029144 40.92776974 81.40586185 41.890625 83.109375 C48.23112776 93.91502055 55.95373108 104.17151566 63.56640625 114.11328125 C64.65955146 115.55194375 65.72494524 117.01173677 66.77734375 118.48046875 C67.38707031 119.31191406 67.99679687 120.14335937 68.625 121 C69.17414063 121.763125 69.72328125 122.52625 70.2890625 123.3125 C72.07412507 125.46814232 72.07412507 125.46814232 76 125 C79.02492389 123.41767417 79.02492389 123.41767417 82.1875 121.3125 C87.357764 117.99277789 92.61251113 114.95329292 98 112 C99.64633143 111.08292487 101.29215587 110.16493904 102.9375 109.24609375 C104.62487858 108.309677 106.31237933 107.37348038 108 106.4375 C108.83789062 105.96892578 109.67578125 105.50035156 110.5390625 105.01757812 C115.91419631 102.04294912 121.34115378 99.3898877 127 97 C127.99386719 96.57976562 128.98773438 96.15953125 130.01171875 95.7265625 C131.94135674 94.93217139 133.8710512 94.13791745 135.80078125 93.34375 C137.91466547 92.45586701 140.01685071 91.5395393 142.10546875 90.59375 C165.90733963 79.90139223 196.20435753 70.04466631 222 79 C226.80413945 81.67304891 229.80800672 85.74910922 231.6875 90.875 C233.86871 105.70722799 225.05247668 118.59937121 217.26171875 130.48828125 C216.84535156 130.98714844 216.42898438 131.48601562 216 132 C215.34 132 214.68 132 214 132 C213.75894531 132.55816406 213.51789063 133.11632812 213.26953125 133.69140625 C211.73113421 136.48892209 209.84438036 138.58486915 207.6875 140.9375 C206.88183594 141.81664062 206.07617188 142.69578125 205.24609375 143.6015625 C202.88282943 146.12511779 200.47894686 148.58991277 198 151 C197.236875 151.763125 196.47375 152.52625 195.6875 153.3125 C194.800625 154.199375 193.91375 155.08625 193 156 C192.43667969 156.58652344 191.87335938 157.17304688 191.29296875 157.77734375 C185.92644152 163.29688805 180.23300006 168.46690905 174 173 C173.34 173 172.68 173 172 173 C171.7525 173.61875 171.505 174.2375 171.25 174.875 C169.74997691 177.42503925 168.6302751 177.76222348 166 179 C165.1028125 179.90492188 165.1028125 179.90492188 164.1875 180.828125 C161.89375409 183.10548701 159.52289398 184.9004263 156.875 186.75 C156.00617188 187.36359375 155.13734375 187.9771875 154.2421875 188.609375 C152 190 152 190 150 190 C150 190.66 150 191.32 150 192 C142.57142857 196.28571429 142.57142857 196.28571429 139 198 C141.55634928 202.70906446 144.84552196 206.068399 148.8125 209.625 C150 211 150 211 150 214 C150.5775 214.061875 151.155 214.12375 151.75 214.1875 C154.92448483 215.33384174 156.12848575 217.25956842 158 220 C158 220.66 158 221.32 158 222 C158.598125 222.268125 159.19625 222.53625 159.8125 222.8125 C161.99847854 223.99917406 163.41332594 225.09599113 165 227 C165 227.66 165 228.32 165 229 C165.70125 229.185625 166.4025 229.37125 167.125 229.5625 C170.56593342 231.28296671 172.19850242 233.36140999 174.57421875 236.3203125 C176.18083457 238.21303799 178.00326366 239.54084652 180 241 C180 241.66 180 242.32 180 243 C181.11375 243.3403125 181.11375 243.3403125 182.25 243.6875 C185.55468578 245.26473639 186.7537857 247.1411818 189 250 C190.3756247 250.9498361 191.75639012 251.8942465 193.17578125 252.77734375 C195.50790054 254.340413 197.63860534 256.0988101 199.8125 257.875 C203.73299155 261.05266157 207.75012088 263.8938719 211.984375 266.6328125 C214 268 214 268 217 270.5625 C220.74770127 273.60750729 224.75183225 275.73730748 229 278 C230.11375 278.639375 231.2275 279.27875 232.375 279.9375 C239.43097011 283.97417127 246.44190785 287.97676314 254 291 C254.57694177 296.81215415 254.9363553 301.53701416 251.3125 306.375 C248.69482996 309.3991788 245.86526418 312.21013751 243 315 C242.34 315.86625 241.68 316.7325 241 317.625 C238.84021784 320.18974132 236.89415648 321.3461963 234 323 C233.175 323.78375 232.35 324.5675 231.5 325.375 C226.28543127 329.82911079 218.63446797 333.06175067 211.78125 332.9453125 C209 332 209 332 207.3359375 330.04296875 C205.50717533 325.87745492 204.05567695 321.62844187 202.625 317.3125 C200.21249354 310.2299705 197.59853358 303.57332133 194 297 C193.20437871 295.37693257 192.41284795 293.75185486 191.625 292.125 C188.69031929 286.25563857 185.35940124 280.63391789 182 275 C181.49339844 274.14277344 180.98679687 273.28554688 180.46484375 272.40234375 C172.92896366 259.71121693 172.92896366 259.71121693 164 248 C162.98812105 246.34051852 161.9873454 244.67419438 161 243 C160.42378906 242.28070313 159.84757813 241.56140625 159.25390625 240.8203125 C156.04221883 236.80152859 153.06497147 232.61865234 150.06640625 228.43945312 C147.57332755 225.00370063 145.02574716 221.99072694 142 219 C141.835 218.29875 141.67 217.5975 141.5 216.875 C141.335 216.25625 141.17 215.6375 141 215 C139.6846659 214.29848848 138.34882408 213.63474075 137 213 C134 209.57142857 134 209.57142857 134 207 C130.54669918 206.10768723 128.67940636 205.68117813 125.39453125 207.22265625 C124.54246094 207.82980469 123.69039062 208.43695313 122.8125 209.0625 C118.42327351 212.04928647 114.02830102 214.70062996 109.34765625 217.19921875 C106.63351912 218.6592155 103.9374122 220.14326948 101.24609375 221.64453125 C92.63266712 226.44320842 84.09551367 231.16837715 75 235 C73.68828751 235.58347997 72.37714075 236.16823262 71.06640625 236.75390625 C61.6000413 240.92638865 51.97903718 244.53796172 42.1875 247.875 C41.09179688 248.25624023 39.99609375 248.63748047 38.8671875 249.03027344 C26.77903769 253.05845031 14.8841049 254.34492789 2.1875 254.25 C1.13369141 254.25773438 0.07988281 254.26546875 -1.00585938 254.2734375 C-15.69980115 254.23686266 -15.69980115 254.23686266 -21.33984375 250.4140625 C-21.86707031 249.82367188 -22.39429688 249.23328125 -22.9375 248.625 C-23.48277344 248.03976562 -24.02804688 247.45453125 -24.58984375 246.8515625 C-28.86969035 241.23204093 -28.53957986 235.85788602 -28 229 C-26.53215769 221.04696347 -21.9249402 213.95735975 -18 207 C-17.34 207 -16.68 207 -16 207 C-15.78085938 206.3090625 -15.56171875 205.618125 -15.3359375 204.90625 C-13.63571931 201.20752972 -11.30095011 198.53509078 -8.625 195.5 C-7.65826463 194.38592796 -6.69210965 193.27135201 -5.7265625 192.15625 C-5.26161377 191.62322266 -4.79666504 191.09019531 -4.31762695 190.54101562 C-3.12006883 189.14042514 -1.97289279 187.69714689 -0.83203125 186.25 C1.47790905 183.41305839 4.16942836 181.31067072 7 179 C8.67099752 177.33767547 10.33689077 175.67021653 12 174 C14.29285005 171.79130077 16.612532 169.6123086 18.9375 167.4375 C19.53240234 166.87353516 20.12730469 166.30957031 20.74023438 165.72851562 C24.30802984 162.39467396 27.89115597 159.63279302 32 157 C32.556875 156.4225 33.11375 155.845 33.6875 155.25 C35 154 35 154 38 154 C38.20753906 153.42378906 38.41507812 152.84757813 38.62890625 152.25390625 C40.51526784 149.15296427 42.87935453 147.86135151 45.9375 145.9375 C49.30806402 143.80376506 52.19557578 141.81300045 55 139 C57.5 138.5625 57.5 138.5625 60 139 C61.8125 141 61.8125 141 63 143 C63.680625 142.01 63.680625 142.01 64.375 141 C64.91125 140.34 65.4475 139.68 66 139 C66.66 139 67.32 139 68 139 C67.68340068 135.70161077 67.25447852 134.26698597 64.93359375 131.83203125 C64.10988281 131.16558594 63.28617187 130.49914062 62.4375 129.8125 C60.92651469 128.57966799 59.43862115 127.31655633 58 126 C58 125.34 58 124.68 58 124 C57.13375 123.9071875 57.13375 123.9071875 56.25 123.8125 C53.12419715 122.68373786 52.01847182 120.58616702 50 118 C48.67532254 117.3162955 47.34136367 116.65035814 46 116 C44.33049646 114.33617504 42.66425993 112.66906993 41 111 C39.24866748 109.51830462 37.4773215 108.05996543 35.6875 106.625 C31.6388793 103.35558894 27.69650703 100.0139954 23.8515625 96.5078125 C21.69017835 94.74769798 19.397441 93.42057325 17 92 C15.15261112 90.70735864 13.31959862 89.39397596 11.5 88.0625 C10.5821875 87.39347656 9.664375 86.72445312 8.71875 86.03515625 C6.89924238 84.67313977 5.10708033 83.27384621 3.34375 81.83984375 C1.00445901 79.87690992 1.00445901 79.87690992 -2 78.5 C-5.07452192 76.96273904 -7.32634892 75.1483991 -10 73 C-14.97230435 69.610806 -20.02275353 66.38639341 -25.4375 63.75 C-29 62 -29 62 -30.9375 60.5 C-33.62142284 58.54805612 -36.49701253 57.4209232 -39.5390625 56.1171875 C-43.49383688 54.32184548 -47.2403498 52.16868711 -51 50 C-51.68184286 41.89364595 -50.64573617 36.71972553 -46 30 C-45.34 30 -44.68 30 -44 30 C-43.773125 29.278125 -43.54625 28.55625 -43.3125 27.8125 C-41.74454373 24.45259371 -39.69689776 22.44307209 -37 20 C-36.29746094 19.32839844 -35.59492188 18.65679687 -34.87109375 17.96484375 C-13.02292162 -2.4805565 -13.02292162 -2.4805565 0 0 Z M-21.9375 15.625 C-22.9584375 16.800625 -22.9584375 16.800625 -24 18 C-26.5 19.5 -26.5 19.5 -29 21 C-34.76547073 25.98635306 -41.92660574 33.43696202 -43 41.1875 C-43 42.115625 -43 43.04375 -43 44 C-29.08510749 43.13031922 -17.35204082 30.18783566 -8.625 20.3125 C-6.19308256 16.85169441 -4.80463992 14.4652006 -5.375 10.1875 C-5.58125 9.465625 -5.7875 8.74375 -6 8 C-11.27554963 8 -18.17787317 12.26533347 -21.9375 15.625 Z M142.39453125 105.96484375 C139.60361235 107.17135845 136.7724513 108.07988782 133.875 109 C128.96304777 110.59924026 124.54478712 112.55280694 120 115 C120 115.33 120 115.66 120 116 C126.31442007 115.50475137 131.93254376 113.89742287 137.94921875 111.9375 C145.12271584 109.73309628 151.97914298 109.78155307 159.4375 109.75 C160.65244141 109.729375 161.86738281 109.70875 163.11914062 109.6875 C164.29541016 109.68234375 165.47167969 109.6771875 166.68359375 109.671875 C168.28545532 109.65785645 168.28545532 109.65785645 169.91967773 109.64355469 C173.54149416 110.06266002 175.90526054 111.09170222 179 113 C182.8187618 119.49189506 182.76751722 125.5381597 181.0625 132.625 C179.11469634 138.75485269 175.4534867 143.8263413 171.86328125 149.09375 C169.82009073 151.70523636 169.82009073 151.70523636 170 154 C173.36202939 152.57390841 175.23675579 150.85651485 177.5625 148.0625 C180.8617526 144.13131928 180.8617526 144.13131928 182.71484375 142.37109375 C184.22795733 141.07000518 184.22795733 141.07000518 184 139 C184.99 138.67 185.98 138.34 187 138 C192.94978527 130.76638635 198.61449933 120.42073021 197.6953125 110.81640625 C196.78100067 107.11292967 195.49657843 104.89077503 193 102 C187.65369098 100.0086349 182.74952845 99.64804998 177.125 99.6875 C176.3007251 99.69168945 175.4764502 99.69587891 174.62719727 99.70019531 C163.56779335 99.89902556 152.55619909 101.41200109 142.39453125 105.96484375 Z M128 129 C128 129.66 128 130.32 128 131 C128.763125 131.433125 129.52625 131.86625 130.3125 132.3125 C133.37994226 134.2385684 134.25173121 135.88352085 136 139 C136.680625 139.680625 137.36125 140.36125 138.0625 141.0625 C141.1402276 144.1402276 141.89994658 146.08284362 142.375 150.4375 C141.93937606 154.57592748 140.7543237 155.98745845 138 159 C138 159.66 138 160.32 138 161 C136.515 161.495 136.515 161.495 135 162 C133.3189787 163.65218732 131.65475385 165.32150506 130 167 C127.86709389 168.80208802 125.65959413 170.4972765 123.4375 172.1875 C122.59155273 172.84395508 122.59155273 172.84395508 121.72851562 173.51367188 C118.93349315 175.65488793 116.23336313 177.58490953 113 179 C113 179.66 113 180.32 113 181 C112.360625 181.23976562 111.72125 181.47953125 111.0625 181.7265625 C107.79291019 183.08611132 104.64276292 184.61663543 101.46411133 186.17407227 C79.45882834 196.89873163 79.45882834 196.89873163 68 196 C67.505 195.01 67.505 195.01 67 194 C66.34 194 65.68 194 65 194 C64.731875 193.319375 64.46375 192.63875 64.1875 191.9375 C63.36216417 189.89587978 62.48278398 187.87561734 61.5625 185.875 C59.48401042 181.09235305 58.28535129 176.04112952 57 171 C50.23289477 177.17000771 45.49783237 183.38066916 44.91015625 192.73828125 C45.00148469 195.03737551 45.18473958 196.8457085 46 199 C53.00326199 204.04234863 60.63446633 204.05199809 69 203 C80.30059361 201.00410635 90.84076264 197.33121961 101 192 C101.95261719 191.5153125 102.90523437 191.030625 103.88671875 190.53125 C110.29561502 187.17037831 116.17046322 183.27694658 122 179 C122.67675781 178.51789063 123.35351562 178.03578125 124.05078125 177.5390625 C129.71988293 173.42640758 134.88853819 168.78112924 140 164 C141.13695312 162.93652344 141.13695312 162.93652344 142.296875 161.8515625 C144.22566308 160.17395806 144.22566308 160.17395806 144 158 C144.66 158 145.32 158 146 158 C147.45062773 155.92047027 148.7705499 153.86232119 150.0625 151.6875 C150.42666016 151.09259766 150.79082031 150.49769531 151.16601562 149.88476562 C154.54014171 144.30280103 156.08264977 139.50766653 155 133 C151.7022487 129.52868284 149.21114604 128.04525161 144.4453125 127.8671875 C143.00520844 127.86452557 141.56508622 127.86735352 140.125 127.875 C139.40441406 127.87113281 138.68382812 127.86726563 137.94140625 127.86328125 C134.49184989 127.86963402 131.29559809 127.91297026 128 129 Z M166.375 155.5 C165.92125 155.995 165.4675 156.49 165 157 C165.33 157.66 165.66 158.32 166 159 C167.32 157.35 168.64 155.7 170 154 C167.87635519 153.77390663 167.87635519 153.77390663 166.375 155.5 Z M30.3125 167.5 C29.67691162 168.05026855 29.04132324 168.60053711 28.38647461 169.16748047 C23.84896289 173.14763129 19.67364643 177.19380454 16 182 C15.12988281 183.11568359 15.12988281 183.11568359 14.2421875 184.25390625 C8.10515187 192.52960581 1.11487021 203.25199544 2 214 C3.5705592 219.54315011 6.14523168 222.96715846 11 226 C25.69949184 233.61223685 43.68134718 227.18261466 58.46875 222.66015625 C64.20894134 220.82928621 69.64711894 218.79350957 75 216 C75 215.67 75 215.34 75 215 C69.28473985 215.38189526 63.8841656 216.21870807 58.3125 217.5625 C45.96457465 220.29006131 34.55397311 220.00398741 23.0625 214.625 C19.15749998 211.54833332 18.15112703 209.04109733 17.4375 204.125 C17.80819397 194.03201426 23.42273137 183.93027729 29.484375 176.1484375 C31.11835802 174.0098632 31.11835802 174.0098632 32.078125 171.2890625 C33.24038068 168.40312255 34.31031711 168.34484145 37 167 C38.28254644 164.46229997 38.28254644 164.46229997 39 162 C35.41458111 162 32.92110398 165.23496167 30.3125 167.5 Z M221 314 C216.75556724 318.99142067 216.75556724 318.99142067 215 325 C227.29499064 321.68645642 238.74414565 313.55396996 246 303 C246.7297862 300.35207774 246.7297862 300.35207774 247 298 C237.09548074 297.16425062 227.38908032 307.29871331 221 314 Z " fill="#141414" transform="translate(237,19)"/>
<path d="M0 0 C2.20287134 1.33206119 3.79838808 2.72429539 5.5625 4.58984375 C7.05784685 6.26295168 7.05784685 6.26295168 10 7 C10.495 7.99 10.495 7.99 11 9 C11.66 8.67 12.32 8.34 13 8 C13.335939 9.4577353 13.66866624 10.91621106 14 12.375 C14.185625 13.18710938 14.37125 13.99921875 14.5625 14.8359375 C15 17 15 17 15 19 C15.99 19.33 16.98 19.66 18 20 C18 20.66 18 21.32 18 22 C18.66 22.33 19.32 22.66 20 23 C18.25579087 24.32018588 16.50439909 25.63088602 14.75 26.9375 C13.28820312 28.03384766 13.28820312 28.03384766 11.796875 29.15234375 C9.3732119 30.75345079 7.8242508 31.57636238 5 32 C5 32.66 5 33.32 5 34 C1.88187059 35.70043413 -1.24550253 37.38309295 -4.375 39.0625 C-5.26445312 39.54783203 -6.15390625 40.03316406 -7.0703125 40.53320312 C-7.92109375 40.98759766 -8.771875 41.44199219 -9.6484375 41.91015625 C-10.43395996 42.33433838 -11.21948242 42.75852051 -12.02880859 43.19555664 C-12.67930176 43.46102295 -13.32979492 43.72648926 -14 44 C-14.66 43.67 -15.32 43.34 -16 43 C-15.67 41.68 -15.34 40.36 -15 39 C-13.68 39 -12.36 39 -11 39 C-11.61488281 38.85304687 -12.22976563 38.70609375 -12.86328125 38.5546875 C-19.48254277 36.71776325 -19.48254277 36.71776325 -21.9375 33.3125 C-22.288125 32.219375 -22.63875 31.12625 -23 30 C-23.20109375 29.37738281 -23.4021875 28.75476563 -23.609375 28.11328125 C-25.00190054 23.32412245 -25.17751886 18.97052806 -25 14 C-24.34 14 -23.68 14 -23 14 C-22.95875 13.319375 -22.9175 12.63875 -22.875 11.9375 C-21.63954522 7.78990182 -19.24020695 4.84593398 -16 2 C-10.82943229 -0.56821927 -5.66194462 -0.96528855 0 0 Z " fill="#313131" transform="translate(345,166)"/>
<path d="M0 0 C3.14344435 1.74635797 5.46862726 3.46862726 8 6 C8.87763858 11.71308961 9.09307487 16.46378667 5.6875 21.25 C1.23176086 24.06135922 -3.97229436 24.03916104 -9 23 C-12.78145028 20.2565949 -13.64665309 18.86335284 -14.5 14.36328125 C-14.80866452 9.64971687 -14.68203898 5.98274222 -11.5 2.3125 C-7.89662618 -0.61949049 -4.46843384 -1.06815151 0 0 Z " fill="#CFCFCF" transform="translate(342,173)"/>
<path d="M0 0 C4.531691 4.08957481 6.22504493 7.8873075 6.77734375 13.90234375 C6.44623666 17.61676334 4.73411689 20.21381424 2.69140625 23.26953125 C1.24006508 25.50698556 1.24006508 25.50698556 1.5625 29.3125 C-0.22364318 30.34296722 -2.01660018 31.36163236 -3.8125 32.375 C-4.81023437 32.94347656 -5.80796875 33.51195312 -6.8359375 34.09765625 C-7.69445312 34.49855469 -8.55296875 34.89945313 -9.4375 35.3125 C-10.0975 34.9825 -10.7575 34.6525 -11.4375 34.3125 C-9.4375 31.3125 -9.4375 31.3125 -6.4375 30.3125 C-7.324375 30.35375 -8.21125 30.395 -9.125 30.4375 C-13.98810382 30.25398665 -16.43493501 29.1751722 -20.125 26 C-24.53077746 20.87977214 -25.04642742 15.86046698 -24.95703125 9.26953125 C-24.2284614 5.12270888 -22.45583104 3.23885482 -19.359375 0.51953125 C-13.69881194 -3.03557848 -5.82682814 -2.8604429 0 0 Z M-19.36328125 6.26953125 C-21.57456619 10.47499315 -21.30342758 14.74608502 -20.4375 19.3125 C-19.22571078 22.61336334 -18.48291778 23.10307926 -15.4375 25.3125 C-10.40979436 26.35166104 -5.20573914 26.37385922 -0.75 23.5625 C2.27290807 19.31408865 2.40390154 16.26801182 2.1640625 11.13671875 C1.52478327 8.13542731 1.00125362 7.06832508 -1.3125 5.125 C-7.80323415 1.36037419 -14.0605231 0.15319925 -19.36328125 6.26953125 Z " fill="#6B6B6B" transform="translate(348.4375,170.6875)"/>
<path d="M0 0 C0 0.66 0 1.32 0 2 C0.99 2 1.98 2 3 2 C3.08114106 3.77007714 3.13925505 5.54122098 3.1875 7.3125 C3.22230469 8.29863281 3.25710938 9.28476563 3.29296875 10.30078125 C3 13 3 13 1.69921875 14.828125 C-1.19807748 16.82626033 -3.60088144 16.41023845 -7 16 C-9.9375 14.5625 -9.9375 14.5625 -12 12 C-12.69790363 8.85659665 -12.73129508 6.13921791 -12 3 C-8.44291389 -0.55708611 -4.83418823 -0.28436401 0 0 Z " fill="#FDFDFD" transform="translate(343,177)"/>
<path d="M0 0 C4.44575392 4.01202183 6.28454959 7.83237331 6.84375 13.75390625 C6.28293905 18.85572808 3.29642019 23.0729426 0.5625 27.3125 C-0.0975 26.9825 -0.7575 26.6525 -1.4375 26.3125 C-1.0765625 25.77882812 -0.715625 25.24515625 -0.34375 24.6953125 C3.37229374 18.72899783 4.21727729 14.28224047 3.5625 7.3125 C2.985 7.044375 2.4075 6.77625 1.8125 6.5 C-0.4375 5.3125 -0.4375 5.3125 -2.3515625 3.72265625 C-6.31975228 1.04004106 -10.86373694 1.53370629 -15.4375 2.3125 C-18.46378793 3.73053206 -20.00655551 5.29482271 -21.4375 8.3125 C-22.34631572 12.82316628 -22.55024543 17.14601836 -20.40625 21.3203125 C-18.30840848 23.96819784 -16.64838387 25.24220538 -13.4375 26.3125 C-13.4375 26.9725 -13.4375 27.6325 -13.4375 28.3125 C-17.4375 28.3125 -17.4375 28.3125 -20.0625 26.125 C-24.46968269 20.90596786 -25.04766923 15.95202247 -24.95703125 9.26953125 C-24.2284614 5.12270888 -22.45583104 3.23885482 -19.359375 0.51953125 C-13.69881194 -3.03557848 -5.82682814 -2.8604429 0 0 Z " fill="#727272" transform="translate(348.4375,170.6875)"/>
<path d="M0 0 C8.46939036 -0.38692646 15.36594193 0.18297096 23 4 C23 5.65 23 7.3 23 9 C20.45965713 7.87095873 18.89955311 6.89650926 16.9375 4.875 C12.4472007 2.00885151 8.18424211 2.3815558 3 3 C-2.28493805 4.76164602 -4.84136626 7.57791276 -8 12 C-8.85279338 14.21735439 -8.85279338 14.21735439 -9 16 C-9.66 16 -10.32 16 -11 16 C-10.34 20.95 -9.68 25.9 -9 31 C-9.66 31 -10.32 31 -11 31 C-14.13584457 27.86415543 -13.74921115 24.33242408 -14.015625 20.0390625 C-13.98913697 14.88714052 -12.66352116 11.71784021 -9.0859375 8.0234375 C-3.58217131 3 -3.58217131 3 -1 3 C-0.67 2.01 -0.34 1.02 0 0 Z " fill="#232323" transform="translate(331,164)"/>
<path d="M0 0 C3.14765238 1.45694445 5.193576 3.01940039 7 6 C7.54347062 9.09476328 7.43436621 11.8973842 7 15 C6.67 15 6.34 15 6 15 C5.938125 13.7625 5.87625 12.525 5.8125 11.25 C5.3952818 7.78340756 5.16685159 7.16685159 2.5625 4.5625 C-1.65373991 1.99162201 -5.06930355 1.21749942 -10 2 C-13.22632043 3.64198841 -13.22632043 3.64198841 -15 7 C-15.85558825 12.05024216 -15.67616237 16.39008959 -13.6875 21.125 C-9.48721945 24.05542829 -5.01512572 23.90488555 0 24 C0 24.66 0 25.32 0 26 C-7.15341298 26.420789 -10.78759763 25.77829394 -16.3125 21 C-18.91325644 16.37643299 -19.06102204 12.16511424 -18 7 C-14.17524993 -0.30980194 -7.69279541 -1.75706601 0 0 Z " fill="#9D9D9D" transform="translate(344,172)"/>
<path d="M0 0 C5.01319327 -0.35666988 8.85303903 -0.56305357 13.4375 1.6875 C17.88325392 5.69952183 19.72204959 9.51987331 20.28125 15.44140625 C19.72043905 20.54322808 16.73392019 24.7604426 14 29 C13.34 28.67 12.68 28.34 12 28 C12.54140625 27.19949219 12.54140625 27.19949219 13.09375 26.3828125 C16.80979374 20.41649783 17.65477729 15.96974047 17 9 C16.38640625 8.7009375 15.7728125 8.401875 15.140625 8.09375 C12.85771624 6.92730027 10.94652949 5.66845385 9 4 C9 3.34 9 2.68 9 2 C6.03 1.67 3.06 1.34 0 1 C0 0.67 0 0.34 0 0 Z " fill="#5A5A5A" transform="translate(335,169)"/>
<path d="M0 0 C0 0.33 0 0.66 0 1 C-0.79664063 1.07476562 -1.59328125 1.14953125 -2.4140625 1.2265625 C-10.59990801 2.10267836 -10.59990801 2.10267836 -17.0859375 6.671875 C-19.29572025 12.30021056 -18.38107916 19.05798794 -18 25 C-18.66 25 -19.32 25 -20 25 C-21.2281959 19.25792174 -22.26089828 13.81664386 -21 8 C-15.56403485 0.45644666 -8.87082516 -1.21425744 0 0 Z " fill="#4D4D4D" transform="translate(343,168)"/>
<path d="M0 0 C0 3 0 3 -0.5 5.1875 C-1.57412801 11.22947008 -0.99890522 17.00656869 0 23 C-0.66 23 -1.32 23 -2 23 C-5.13084579 19.86915421 -4.74073957 16.34312818 -5.0390625 12.05859375 C-4.97490399 7.03498219 -3.60321568 3.60321568 0 0 Z " fill="#1D1D1D" transform="translate(322,172)"/>
<path d="M0 0 C2.12046792 3.53411321 2.53199289 6.94393835 3 11 C3.99 11.33 4.98 11.66 6 12 C6 12.66 6 13.32 6 14 C6.66 14.33 7.32 14.66 8 15 C6.3125 16.5625 6.3125 16.5625 4 18 C1.25 17.6875 1.25 17.6875 -1 17 C-0.9278125 16.443125 -0.855625 15.88625 -0.78125 15.3125 C-0.15508783 10.1640555 0.09427945 5.18536962 0 0 Z " fill="#1C1C1C" transform="translate(357,174)"/>
<path d="M0 0 C0.66 0 1.32 0 2 0 C2.33 4.29 2.66 8.58 3 13 C3.66 13 4.32 13 5 13 C7.1875 14.75 7.1875 14.75 9 17 C8.75 19.25 8.75 19.25 8 21 C7.3503125 20.0409375 7.3503125 20.0409375 6.6875 19.0625 C5.08760823 16.73253997 5.08760823 16.73253997 2 16 C0.16918021 10.50754063 -0.20568145 5.75908058 0 0 Z " fill="#373737" transform="translate(320,180)"/>
<path d="M0 0 C0.66 0.33 1.32 0.66 2 1 C1.071875 2.36125 1.071875 2.36125 0.125 3.75 C-1.93971006 6.71160673 -1.93971006 6.71160673 -2.875 9 C-4.26174717 11.46532831 -5.82807565 12.61992465 -8.125 14.25 C-8.84945312 14.77078125 -9.57390625 15.2915625 -10.3203125 15.828125 C-10.87460938 16.21484375 -11.42890625 16.6015625 -12 17 C-12 12.69761104 -9.39543781 10.86873057 -6.5625 7.9375 C-2.86562064 4.27608294 -2.86562064 4.27608294 0 0 Z " fill="#6A6A6A" transform="translate(238,203)"/>
<path d="M0 0 C4.875 2.625 4.875 2.625 6 6 C10.04141194 6.63394697 13.9065307 7.12404452 18 7 C17.67 7.66 17.34 8.32 17 9 C8.30434783 10.73913043 8.30434783 10.73913043 4 8 C3.375 6 3.375 6 3 4 C2.01 3.34 1.02 2.68 0 2 C0 1.34 0 0.68 0 0 Z " fill="#4A4A4A" transform="translate(325,193)"/>
<path d="M0 0 C2 2 2 2 2.375 5.6875 C2.24467447 10.45741444 0.83038152 13.17516011 -2 17 C-4.75 18.4375 -4.75 18.4375 -7 19 C-7 18.34 -7 17.68 -7 17 C-6.34 17 -5.68 17 -5 17 C-4.34 15.68 -3.68 14.36 -3 13 C-2.34 13 -1.68 13 -1 13 C-0.67 8.71 -0.34 4.42 0 0 Z " fill="#818181" transform="translate(351,178)"/>
<path d="M0 0 C-2.24307028 1.20250158 -4.4928791 2.3869162 -6.75 3.5625 C-7.70132812 4.07586914 -7.70132812 4.07586914 -8.671875 4.59960938 C-13.45095438 7.06382218 -13.45095438 7.06382218 -16.453125 6.71484375 C-16.96359375 6.47894531 -17.4740625 6.24304688 -18 6 C-17.01 5.67 -16.02 5.34 -15 5 C-15.99 4.34 -16.98 3.68 -18 3 C-15.75376301 2.30030318 -13.50283586 1.61564957 -11.25 0.9375 C-9.99703125 0.55464844 -8.7440625 0.17179688 -7.453125 -0.22265625 C-4.3261992 -0.92656828 -2.90533954 -1.16653785 0 0 Z " fill="#B6B6B6" transform="translate(326,230)"/>
<path d="M0 0 C3 1 3 1 4.33203125 3.015625 C5.87531028 5.25789697 5.87531028 5.25789697 8.69921875 5.609375 C9.68535156 5.65578125 10.67148437 5.7021875 11.6875 5.75 C12.68136719 5.80671875 13.67523438 5.8634375 14.69921875 5.921875 C15.83810547 5.96054688 15.83810547 5.96054688 17 6 C17 6.66 17 7.32 17 8 C10.26232113 8.39633405 6.43961499 7.96518533 1.1875 3.4375 C0 2 0 2 0 0 Z " fill="#939393" transform="translate(327,190)"/>
<path d="M0 0 C8.93709328 -0.78091106 8.93709328 -0.78091106 13.0625 2.25 C14.82704078 4.7545095 15.40023725 6.10629929 16 9 C14.82780457 8.21654285 13.66236332 7.42297164 12.5 6.625 C11.8503125 6.18414062 11.200625 5.74328125 10.53125 5.2890625 C9.77328125 4.65097656 9.77328125 4.65097656 9 4 C9 3.34 9 2.68 9 2 C6.03 1.67 3.06 1.34 0 1 C0 0.67 0 0.34 0 0 Z " fill="#686868" transform="translate(335,169)"/>
<path d="M0 0 C0 3.93602341 -1.58022978 4.99361881 -4 8 C-4.77833534 10.18214568 -4.77833534 10.18214568 -5 12 C-6.98 12.33 -8.96 12.66 -11 13 C-8.35845491 8.79309485 -5.63204066 5.44088062 -2 2 C-1.34 1.34 -0.68 0.68 0 0 Z " fill="#787878" transform="translate(420,160)"/>
<path d="M0 0 C6.22299426 -0.21094896 10.51345988 -0.28492876 15.3125 4.125 C15.869375 4.74375 16.42625 5.3625 17 6 C16.67 6.99 16.34 7.98 16 9 C15.443125 8.401875 14.88625 7.80375 14.3125 7.1875 C9.80045295 2.91934739 6.18693439 1.6065622 0 1 C0 0.67 0 0.34 0 0 Z " fill="#404040" transform="translate(336,167)"/>
<path d="M0 0 C0.66 0.33 1.32 0.66 2 1 C0.21439422 3.48432109 -1.12765974 4.85280226 -4.19921875 5.37109375 C-8.69401475 5.4941397 -8.69401475 5.4941397 -11 5 C-11.66 4.01 -12.32 3.02 -13 2 C-12.22914063 2.02320313 -11.45828125 2.04640625 -10.6640625 2.0703125 C-9.15972656 2.09738281 -9.15972656 2.09738281 -7.625 2.125 C-6.62726563 2.14820313 -5.62953125 2.17140625 -4.6015625 2.1953125 C-1.83737827 2.27216848 -1.83737827 2.27216848 0 0 Z " fill="#D8D8D8" transform="translate(345,190)"/>
<path d="M0 0 C0.66 0.33 1.32 0.66 2 1 C0.38113585 2.67262717 -1.2452729 4.33795537 -2.875 6 C-4.23238281 7.3921875 -4.23238281 7.3921875 -5.6171875 8.8125 C-8 11 -8 11 -10 11 C-10 11.66 -10 12.32 -10 13 C-10.66 12.67 -11.32 12.34 -12 12 C-8.57833482 7.29521038 -4.42094803 3.72346836 0 0 Z " fill="#656565" transform="translate(210,30)"/>
<path d="M0 0 C0.33 0.66 0.66 1.32 1 2 C-0.07192184 3.3218362 -1.15802695 4.63217927 -2.25 5.9375 C-2.85328125 6.66839844 -3.4565625 7.39929688 -4.078125 8.15234375 C-6.10741134 10.10326334 -7.254407 10.61731779 -10 11 C-6.79239749 7.19364503 -3.59253891 3.45436433 0 0 Z " fill="#7F7F7F" transform="translate(481,323)"/>
<path d="M0 0 C-3.5087188 3.09592835 -6.49197399 4.74194623 -11 6 C-9.90648447 2.82880497 -8.9873012 1.99216457 -6.0625 0.1875 C-3 -1 -3 -1 0 0 Z " fill="#838383" transform="translate(348,200)"/>
<path d="M0 0 C-2.52956528 3.0916909 -5.22454612 3.90931332 -9 5 C-8.67 3.35 -8.34 1.7 -8 0 C-4.71303767 -0.79953138 -3.28976808 -1.09658936 0 0 Z " fill="#525252" transform="translate(338,205)"/>
<path d="M0 0 C1.32 0.99 2.64 1.98 4 3 C1.31158141 5.25245881 -0.64641875 6.88213958 -4 8 C-4 7.01 -4 6.02 -4 5 C-3.34 5 -2.68 5 -2 5 C-1.34 3.35 -0.68 1.7 0 0 Z " fill="#6A6A6A" transform="translate(355,190)"/>
<path d="M0 0 C0.99 0 1.98 0 3 0 C3 0.66 3 1.32 3 2 C3.66 2.33 4.32 2.66 5 3 C3.25 4.5625 3.25 4.5625 1 6 C-1.25 5.6875 -1.25 5.6875 -3 5 C-1.6875 2.5 -1.6875 2.5 0 0 Z " fill="#424242" transform="translate(360,186)"/>
<path d="M0 0 C0.66 0.99 1.32 1.98 2 3 C0.625 5.5 0.625 5.5 -1 8 C-1.66 8 -2.32 8 -3 8 C-3 8.99 -3 9.98 -3 11 C-3.66 11 -4.32 11 -5 11 C-3.55049545 7.2089881 -1.84827434 3.6125362 0 0 Z " fill="#454545" transform="translate(354,187)"/>
<path d="M0 0 C0.99 0.33 1.98 0.66 3 1 C0.36 2.98 -2.28 4.96 -5 7 C-5 6.01 -5 5.02 -5 4 C-2.6875 1.75 -2.6875 1.75 0 0 Z " fill="#535353" transform="translate(231,213)"/>
</svg>
